<svg
  xmlns="http://www.w3.org/2000/svg"
  viewBox="0 0 64 64"
  fill="none"
>
  <rect width="64" height="64" rx="18" fill="#141414" />
  <path
    d="M41.5 23.25C39.4363 20.4167 36.5324 19 32.7883 19C29.7088 19 27.1217 20.0556 25.0268 22.1667C22.9424 24.2778 21.9004 26.9074 21.9004 30.0556C21.9004 33.2037 22.9424 35.8287 25.0268 37.9306C27.1217 40.0324 29.7477 41.0833 32.9049 41.0833C35.7145 41.0833 38.1541 40.2222 40.2238 38.5V34.3889C39.4852 35.0185 38.6404 35.4907 37.6896 35.8056C36.7388 36.1111 35.7448 36.2639 34.7076 36.2639C32.8698 36.2639 31.3474 35.7037 30.1404 34.5833C28.9334 33.463 28.33 31.9537 28.33 30.0556C28.33 28.1759 28.9386 26.6713 30.1559 25.5417C31.3731 24.4028 32.9535 23.8333 34.8961 23.8333C36.9873 23.8333 39.1884 24.7315 41.5 26.5278V23.25Z"
    fill="#F5F5F2"
  />
</svg>
